{"title":"Song.of.the.Sea.2014.LIMITED.720p.BluRay.H264.AAC-RARBG","uid":11761330,"size":1229016790,"categoryP":"video","categoryS":"hd___movies","magnet":"?xt=urn:btih:871c4766b9237f028326ac91f3f3cc3ef778139b&amp;dn=Song.of.the.Sea.2014.LIMITED.720p.BluRay.H264.AAC-RARBG&amp;tr=udp%3A%2F%2Ftracker.openbittorrent.com%3A80&amp;tr=udp%3A%2F%2Fopen.demonii.com%3A1337&amp;tr=udp%3A%2F%2Ftracker.coppersurfer.tk%3A6969&amp;tr=udp%3A%2F%2Fexodus.desync.com%3A6969","seeders":16,"leechers":14,"uploader":"vickey1992","files":8,"time":1426552661,"description":"\n+1  \n0  \nreport fake\nSong of the Sea 2014 LIMITED 720p BluRay H264 AAC-RARBG\nseeders: 23leechers: 39\n   DOWNLOAD TORRENT\nAdded on Mar 17, 2015 by  DesiRockerZ5848 in Movies &gt; Highres Movies\t\nDownloaded 72 times.\nMAIN\n \nTECHNICAL\n \nTRAILER\n \nCOMMENTS\n \nMovie: Song of the Sea\nDetected quality: 720p\nIMDb link: 1865505\nIMDb rating: 8.3 (791 votes)\nRottenTomatoes: 98% 90%\nGenres: Animation, Family, Fantasy\n \nadd Song of the Sea to bookmarks\nRelease date: 10 December 2014\nWriters: Will Collins, Tomm Moore (story)\nDirector: Tomm Moore\nLanguage: English\nSubtitles: English\nCast: Fionnula Flanagan, Brendan Gleeson, Pat Shortt, David Rawle and others Summary:\nSaoirse, a little girl who can turn into a seal, goes on an adventure with her brother to save the spirit world and other magical beings like her.\nWritten by  rwdy13.28K\nreport summary\nAvailable in versions:\n720P\nSong of the Sea 2014 LIMITED 720p BluRay H264 AAC-RARBG (Size: 1.14 GB)\n \t\trarbg.com.mp4\t992.93 KB\n \t\trarbg.com.txt\t34 bytes\n \t\tSong.of.the.Sea.2014.LIMITED.720p.BluRay.H264.AAC-RARBG.mp4\t1.14 GB\n \t\tSong.of.the.Sea.2014.LIMITED.720p.BluRay.H264.AAC-RARBG.nfo\t6.42 KB\n \t\nSubs\nDescription\nimage\n\nimage\nMediaInfo\n\nVideo\nID : 1\nFormat : AVC\nFormat/Info : Advanced Video Codec\nFormat profile : &lt;a class=&quot;__cf_email__&quot; href=&quot;/cdn-cgi/l/email-protection&quot; data-cfemail=&quot;3a72535d527a760e140b&quot;&gt;[email&amp;#160;protected]&lt;/a&gt;&lt;script cf-hash='f9e31' type=&quot;text/javascript&quot;&gt;\n/* &lt;![CDATA[ */!function(){try{var t=&quot;currentScript&quot;in document?document.currentScript:function(){for(var t=document.getElementsByTagName(&quot;script&quot;),e=t.length;e--;)if(t[e].getAttribute(&quot;cf-hash&quot;))return t[e]}();if(t&amp;&amp;t.previousSibling){var e,r,n,i,c=t.previousSibling,a=c.getAttribute(&quot;data-cfemail&quot;);if(a){for(e=&quot;&quot;,r=parseInt(a.substr(0,2),16),n=2;a.length-n;n+=2)i=parseInt(a.substr(n,2),16)^r,e+=String.fromCharCode(i);e=document.createTextNode(e),c.parentNode.replaceChild(e,c)}}}catch(u){}}();/* ]]&gt; */&lt;/script&gt;\nFormat settings, CABAC : Yes\nFormat settings, ReFrames : 4 frames\nCodec ID : avc1\nCodec ID/Info : Advanced Video Coding\nDuration : 1h 33mn\nBit rate : 1 500 Kbps\nWidth : 1 280 pixels\nHeight : 688 pixels\nDisplay aspect ratio : 1.85:1\nFrame rate mode : Constant\nFrame rate : 23.976 fps\nColor space : YUV\nChroma subsampling : 4:2:0\nBit depth : 8 bits\nScan type : Progressive\nBits/(Pixel*Frame) : 0.071\nStream size : 1 009 MiB (87%)\nWriting library : x264 core 144 r2525M 40bb568\nEncoding settings : cabac=1 / ref=4 / deblock=1:-1:-1 / analyse=0x3:0x113 / me=umh / subme=9 / psy=1 / psy_rd=1.00:0.15 / mixed_ref=1 / me_range=24 / chroma_me=1 / trellis=2 / 8x8dct=1 / cqm=0 / deadzone=21,11 / fast_pskip=1 / chroma_qp_offset=-3 / threads=32 / lookahead_threads=4 / sliced_threads=0 / nr=0 / decimate=1 / interlaced=0 / bluray_compat=0 / constrained_intra=0 / bframes=3 / b_pyramid=2 / b_adapt=1 / b_bias=0 / direct=1 / weightb=1 / open_gop=0 / weightp=2 / keyint=250 / keyint_min=25 / scenecut=40 / intra_refresh=0 / rc_lookahead=50 / rc=2pass / mbtree=1 / bitrate=1500 / ratetol=1.0 / qcomp=0.60 / qpmin=0 / qpmax=69 / qpstep=4 / cplxblur=20.0 / qblur=0.5 / vbv_maxrate=31250 / vbv_bufsize=31250 / nal_hrd=none / filler=0 / ip_ratio=1.40 / aq=3:1.00\nEncoded date : UTC 1904-01-01 00:00:00\nTagged date : UTC 1904-01-01 00:00:00\n\nAudio\nID : 2\nFormat : AAC\nFormat/Info : Advanced Audio Codec\nFormat profile : LC\nCodec ID : 40\nDuration : 1h 33mn\nBit rate mode : Constant\nBit rate : 224 Kbps\nChannel(s) : 2 channels\nChannel(s)_Original : 6 channels\nChannel positions : Front: L C R, Side: L R, LFE\nSampling rate : 48.0 KHz\nCompression mode : Lossy\nStream size : 151 MiB (13%)\nLanguage : English\nEncoded date : UTC 1904-01-01 00:00:00\nTagged date : UTC 1904-01-01 00:00:00\n\nMenu #1\nID : 3\nCodec ID : text\nDuration : 1h 33mn\nLanguage : English\nEncoded date : UTC 1904-01-01 00:00:00\nTagged date : UTC 1904-01-01 00:00:00\nBit rate mode : CBR","torrent":{"xt":"urn:btih:871c4766b9237f028326ac91f3f3cc3ef778139b","amp;dn":"Song.of.the.Sea.2014.LIMITED.720p.BluRay.H264.AAC-RARBG","amp;tr":["udp%3A%2F%2Ftracker.openbittorrent.com%3A80","udp%3A%2F%2Fopen.demonii.com%3A1337","udp%3A%2F%2Ftracker.coppersurfer.tk%3A6969","udp%3A%2F%2Fexodus.desync.com%3A6969"],"infoHash":"871c4766b9237f028326ac91f3f3cc3ef778139b","infoHashBuffer":{"type":"Buffer","data":[135,28,71,102,185,35,127,2,131,38,172,145,243,243,204,62,247,120,19,155]},"announce":[],"urlList":[]}}